<svg width="16" height="17" viewBox="0 0 16 17" fill="none" xmlns="http://www.w3.org/2000/svg">
<path d="M8.22726 13.132C7.96048 13.132 7.73926 12.9107 7.73926 12.644V11.2776C7.73926 11.0108 7.96048 10.7896 8.22726 10.7896C8.49403 10.7896 8.71526 11.0108 8.71526 11.2776V12.644C8.71526 12.9107 8.49403 13.132 8.22726 13.132Z" fill="#9CA3AF"/>
<path d="M11.969 15.3445H4.48633V14.2058C4.48633 13.2168 5.28665 12.4165 6.27566 12.4165H10.1797C11.1687 12.4165 11.969 13.2168 11.969 14.2058V15.3445ZM5.46233 14.3685H10.993V14.2058C10.993 13.7569 10.6286 13.3925 10.1797 13.3925H6.27566C5.8267 13.3925 5.46233 13.7569 5.46233 14.2058V14.3685Z" fill="#9CA3AF"/>
<path d="M12.131 15.3442H4.32296C4.05619 15.3442 3.83496 15.1229 3.83496 14.8562C3.83496 14.5894 4.05619 14.3682 4.32296 14.3682H12.131C12.3977 14.3682 12.619 14.5894 12.619 14.8562C12.619 15.1229 12.3977 15.3442 12.131 15.3442Z" fill="#9CA3AF"/>
<path d="M12.3125 8.63583C12.1758 8.63583 12.0392 8.57727 11.9416 8.46666C11.818 8.32351 11.7854 8.1218 11.8635 7.95263C12.0848 7.44511 12.1954 6.90506 12.1954 6.33898V4.38698C12.1954 4.15924 12.1563 3.93802 12.0782 3.70378C12.0717 3.68426 12.0652 3.65823 12.0587 3.6322C12.0392 3.5346 12.0327 3.437 12.0327 3.34591C12.0327 3.07914 12.2539 2.85791 12.5207 2.85791H12.9111C14.0758 2.85791 15.0258 3.83391 15.0258 5.03764C15.0258 6.03316 14.6158 7.01567 13.9066 7.7249C13.8936 7.73791 13.8546 7.77044 13.8481 7.77695C13.4642 8.09578 13.0282 8.45364 12.4426 8.61631C12.3971 8.62932 12.358 8.63583 12.3125 8.63583ZM13.1258 3.85343C13.1584 4.02911 13.1714 4.2113 13.1714 4.38698V6.33898C13.1714 6.60575 13.1518 6.85951 13.1128 7.11978C13.1518 7.08724 13.1844 7.06122 13.2234 7.02868C13.744 6.50815 14.0498 5.7794 14.0498 5.03764C14.0498 4.45204 13.6529 3.95754 13.1258 3.85343Z" fill="#9CA3AF"/>
<path d="M3.95221 8.61014C3.90016 8.61014 3.85461 8.60364 3.80256 8.58412C3.26901 8.41494 2.768 8.10262 2.35157 7.6862C1.6033 6.85985 1.23242 5.95542 1.23242 4.99894C1.23242 3.81473 2.16288 2.88428 3.34709 2.88428H3.77002C3.93269 2.88428 4.08885 2.96886 4.17994 3.1055C4.27104 3.24214 4.28405 3.41782 4.21898 3.56748C4.11488 3.80172 4.06282 4.06849 4.06282 4.34828V6.30028C4.06282 6.85985 4.17344 7.40641 4.40117 7.92694C4.47925 8.10262 4.44021 8.30433 4.31658 8.44748C4.21898 8.55158 4.08885 8.61014 3.95221 8.61014ZM3.11936 3.8798C2.59232 3.9839 2.20842 4.43937 2.20842 4.99894C2.20842 5.70817 2.49472 6.39137 3.0608 7.01601C3.08682 7.04854 3.11936 7.07457 3.15189 7.1006C3.10634 6.83382 3.08682 6.56705 3.08682 6.30028V4.34828C3.08682 4.19212 3.09984 4.03596 3.11936 3.8798Z" fill="#9CA3AF"/>
<path d="M8.12958 11.4403C5.35123 11.4403 3.08691 9.17599 3.08691 6.39765V4.44565C3.08691 2.7409 4.47283 1.35498 6.17758 1.35498H10.0816C11.7863 1.35498 13.1722 2.7409 13.1722 4.44565V6.39765C13.1722 9.17599 10.9079 11.4403 8.12958 11.4403ZM6.17758 2.33098C5.01289 2.33098 4.06291 3.28095 4.06291 4.44565V6.39765C4.06291 8.64245 5.88478 10.4643 8.12958 10.4643C10.3744 10.4643 12.1962 8.64245 12.1962 6.39765V4.44565C12.1962 3.28095 11.2463 2.33098 10.0816 2.33098H6.17758Z" fill="#9CA3AF"/>
</svg>
