<svg width="82" height="76" viewBox="0 0 82 76" fill="none" xmlns="http://www.w3.org/2000/svg">
<g opacity="0.5">
<path d="M40.9997 23.8333C33.1797 23.8333 26.833 30.1799 26.833 37.9999C26.833 45.8199 33.1797 52.1666 40.9997 52.1666C48.8197 52.1666 55.1663 45.8199 55.1663 37.9999C55.1663 30.1799 48.8197 23.8333 40.9997 23.8333ZM47.573 33.4666C47.3605 35.7049 46.4397 41.1449 45.9722 43.6524C45.7738 44.7149 45.3772 45.0691 45.0088 45.1116C44.1872 45.1824 43.5638 44.5733 42.7705 44.0491C41.5238 43.2274 40.8155 42.7174 39.6113 41.9241C38.2088 41.0033 39.1155 40.4933 39.923 39.6716C40.1355 39.4591 43.7622 36.1583 43.833 35.8608C43.8428 35.8157 43.8415 35.7689 43.8292 35.7245C43.8169 35.68 43.7938 35.6393 43.7622 35.6058C43.6772 35.5349 43.5638 35.5633 43.4647 35.5774C43.3372 35.6058 41.3538 36.9233 37.4863 39.5299C36.9197 39.9124 36.4097 40.1108 35.9563 40.0966C35.4463 40.0824 34.483 39.8133 33.7605 39.5724C32.868 39.2891 32.1738 39.1333 32.2305 38.6374C32.2588 38.3824 32.613 38.1274 33.2788 37.8583C37.4155 36.0591 40.1638 34.8691 41.538 34.3024C45.4763 32.6591 46.2838 32.3758 46.8222 32.3758C46.9355 32.3758 47.2047 32.4041 47.3747 32.5458C47.5163 32.6591 47.5588 32.8149 47.573 32.9283C47.5588 33.0133 47.5872 33.2683 47.573 33.4666Z" fill="white"/>
</g>
<rect x="1" y="1" width="80" height="74" stroke="white" stroke-opacity="0.26" stroke-width="2"/>
</svg>
