<svg width="17" height="17" viewBox="0 0 17 17" fill="none" xmlns="http://www.w3.org/2000/svg">
<path d="M8.28114 2.7417C6.12743 2.7417 4.37714 4.49199 4.37714 6.6457V8.52613C4.37714 8.92303 4.20797 9.52815 4.00626 9.8665L3.25799 11.1093C2.79602 11.8771 3.11485 12.7294 3.96071 13.0157C6.76509 13.9527 9.79069 13.9527 12.5951 13.0157C13.3824 12.7555 13.7272 11.825 13.2978 11.1093L12.5495 9.8665C12.3543 9.52815 12.1851 8.92303 12.1851 8.52613V6.6457C12.1851 4.4985 10.4283 2.7417 8.28114 2.7417Z" stroke="#292D32" stroke-width="0.976" stroke-miterlimit="10" stroke-linecap="round"/>
<path d="M9.48462 2.93019C9.28291 2.87163 9.0747 2.82608 8.85998 2.80006C8.23534 2.72198 7.63672 2.76752 7.07715 2.93019C7.26584 2.4487 7.73432 2.11035 8.28088 2.11035C8.82744 2.11035 9.29592 2.4487 9.48462 2.93019Z" stroke="#292D32" stroke-width="0.976" stroke-miterlimit="10" stroke-linecap="round" stroke-linejoin="round"/>
<path d="M10.2331 13.25C10.2331 14.3236 9.3547 15.202 8.2811 15.202C7.74756 15.202 7.25305 14.9808 6.90169 14.6294C6.55033 14.2781 6.3291 13.7835 6.3291 13.25" stroke="#292D32" stroke-width="0.976" stroke-miterlimit="10"/>
</svg>
