<svg width="10" height="7" viewBox="0 0 10 7" fill="none" xmlns="http://www.w3.org/2000/svg">
<path fill-rule="evenodd" clip-rule="evenodd" d="M5.26746 1.5547C6.60634 1.55476 7.89401 2.06921 8.86435 2.99173C8.93742 3.06295 9.05421 3.06205 9.12617 2.98971L9.82464 2.2848C9.86108 2.24811 9.8814 2.19841 9.8811 2.1467C9.88079 2.09499 9.8599 2.04553 9.82303 2.00927C7.27621 -0.431477 3.25831 -0.431477 0.711489 2.00927C0.674597 2.04551 0.653665 2.09495 0.653325 2.14666C0.652984 2.19837 0.673264 2.24808 0.709677 2.2848L1.40835 2.98971C1.48027 3.06216 1.59715 3.06306 1.67018 2.99173C2.64063 2.06915 3.92846 1.5547 5.26746 1.5547ZM5.26734 3.84804C6.00297 3.84799 6.71234 4.12142 7.25762 4.61519C7.33138 4.68527 7.44756 4.68375 7.51945 4.61177L8.21712 3.90685C8.25386 3.86988 8.27424 3.81972 8.27371 3.76759C8.27318 3.71547 8.25178 3.66574 8.2143 3.62952C6.5538 2.08491 3.9823 2.08491 2.3218 3.62952C2.28429 3.66574 2.26289 3.7155 2.2624 3.76763C2.26191 3.81977 2.28237 3.86993 2.31918 3.90685L3.01665 4.61177C3.08854 4.68375 3.20472 4.68527 3.27847 4.61519C3.8234 4.12175 4.53221 3.84834 5.26734 3.84804ZM6.66493 5.39124C6.66599 5.44351 6.64545 5.4939 6.60813 5.53052L5.40132 6.74841C5.36594 6.7842 5.31771 6.80435 5.26738 6.80435C5.21706 6.80435 5.16883 6.7842 5.13345 6.74841L3.92643 5.53052C3.88915 5.49387 3.86863 5.44346 3.86974 5.39119C3.87084 5.33892 3.89347 5.28943 3.93227 5.25439C4.70299 4.60252 5.83178 4.60252 6.6025 5.25439C6.64127 5.28946 6.66386 5.33897 6.66493 5.39124Z" fill="white"/>
</svg>
