<svg width="17" height="17" viewBox="0 0 17 17" fill="none" xmlns="http://www.w3.org/2000/svg">
<path d="M13.4437 7.86165H10.815C9.50712 7.86165 8.87598 7.28255 8.87598 6.08533V3.1313C8.87598 1.93407 9.51363 1.35498 10.815 1.35498H13.4437C14.7515 1.35498 15.3826 1.93407 15.3826 3.1313V6.07882C15.3826 7.28255 14.745 7.86165 13.4437 7.86165ZM10.815 2.33098C9.94307 2.33098 9.85198 2.57823 9.85198 3.1313V6.07882C9.85198 6.63839 9.94307 6.87914 10.815 6.87914H13.4437C14.3156 6.87914 14.4066 6.63189 14.4066 6.07882V3.1313C14.4066 2.57173 14.3156 2.33098 13.4437 2.33098H10.815Z" fill="#9CA3AF"/>
<path d="M13.4437 15.3441H10.815C9.50712 15.3441 8.87598 14.7064 8.87598 13.4051V10.7764C8.87598 9.46855 9.51363 8.8374 10.815 8.8374H13.4437C14.7515 8.8374 15.3826 9.47506 15.3826 10.7764V13.4051C15.3826 14.7064 14.745 15.3441 13.4437 15.3441ZM10.815 9.8134C10.0472 9.8134 9.85198 10.0086 9.85198 10.7764V13.4051C9.85198 14.1729 10.0472 14.3681 10.815 14.3681H13.4437C14.2114 14.3681 14.4066 14.1729 14.4066 13.4051V10.7764C14.4066 10.0086 14.2114 9.8134 13.4437 9.8134H10.815Z" fill="#9CA3AF"/>
<path d="M5.96124 7.86165H3.33254C2.0247 7.86165 1.39355 7.28255 1.39355 6.08533V3.1313C1.39355 1.93407 2.03121 1.35498 3.33254 1.35498H5.96124C7.26908 1.35498 7.90022 1.93407 7.90022 3.1313V6.07882C7.90022 7.28255 7.26257 7.86165 5.96124 7.86165ZM3.33254 2.33098C2.46065 2.33098 2.36955 2.57823 2.36955 3.1313V6.07882C2.36955 6.63839 2.46065 6.87914 3.33254 6.87914H5.96124C6.83313 6.87914 6.92422 6.63189 6.92422 6.07882V3.1313C6.92422 2.57173 6.83313 2.33098 5.96124 2.33098H3.33254Z" fill="#9CA3AF"/>
<path d="M5.96124 15.3441H3.33254C2.0247 15.3441 1.39355 14.7064 1.39355 13.4051V10.7764C1.39355 9.46855 2.03121 8.8374 3.33254 8.8374H5.96124C7.26908 8.8374 7.90022 9.47506 7.90022 10.7764V13.4051C7.90022 14.7064 7.26257 15.3441 5.96124 15.3441ZM3.33254 9.8134C2.56475 9.8134 2.36955 10.0086 2.36955 10.7764V13.4051C2.36955 14.1729 2.56475 14.3681 3.33254 14.3681H5.96124C6.72902 14.3681 6.92422 14.1729 6.92422 13.4051V10.7764C6.92422 10.0086 6.72902 9.8134 5.96124 9.8134H3.33254Z" fill="#9CA3AF"/>
</svg>
