<svg width="17" height="17" viewBox="0 0 17 17" fill="none" xmlns="http://www.w3.org/2000/svg">
<path d="M8.28163 2.7417C6.12792 2.7417 4.37763 4.49199 4.37763 6.6457V8.52613C4.37763 8.92303 4.20846 9.52815 4.00675 9.8665L3.25848 11.1093C2.79651 11.8771 3.11534 12.7294 3.9612 13.0157C6.76558 13.9527 9.79118 13.9527 12.5955 13.0157C13.3829 12.7555 13.7277 11.825 13.2983 11.1093L12.55 9.8665C12.3548 9.52815 12.1856 8.92303 12.1856 8.52613V6.6457C12.1856 4.4985 10.4288 2.7417 8.28163 2.7417Z" stroke="#292D32" stroke-width="0.976" stroke-miterlimit="10" stroke-linecap="round"/>
<path d="M9.4851 2.93019C9.2834 2.87163 9.07518 2.82608 8.86046 2.80006C8.23582 2.72198 7.63721 2.76752 7.07764 2.93019C7.26633 2.4487 7.73481 2.11035 8.28137 2.11035C8.82793 2.11035 9.29641 2.4487 9.4851 2.93019Z" stroke="#292D32" stroke-width="0.976" stroke-miterlimit="10" stroke-linecap="round" stroke-linejoin="round"/>
<path d="M10.2336 13.25C10.2336 14.3236 9.35519 15.202 8.28159 15.202C7.74804 15.202 7.25354 14.9808 6.90218 14.6294C6.55082 14.2781 6.32959 13.7835 6.32959 13.25" stroke="#292D32" stroke-width="0.976" stroke-miterlimit="10"/>
</svg>
