<svg width="11" height="9" viewBox="0 0 11 9" fill="none" xmlns="http://www.w3.org/2000/svg">
<path fill-rule="evenodd" clip-rule="evenodd" d="M5.55482 2.4437C6.99663 2.44376 8.38331 2.99776 9.42824 3.9912C9.50693 4.06789 9.6327 4.06693 9.7102 3.98903L10.4624 3.22992C10.5016 3.19041 10.5235 3.13689 10.5232 3.0812C10.5228 3.02552 10.5003 2.97226 10.4606 2.93321C7.71801 0.304814 3.3912 0.304814 0.648579 2.93321C0.60885 2.97223 0.586308 3.02548 0.585942 3.08116C0.585576 3.13684 0.607415 3.19038 0.646627 3.22992L1.39901 3.98903C1.47646 4.06704 1.60233 4.06801 1.68097 3.9912C2.72604 2.9977 4.11287 2.44369 5.55482 2.4437ZM5.5549 4.91332C6.34708 4.91328 7.11099 5.20772 7.6982 5.73945C7.77762 5.81492 7.90273 5.81328 7.98015 5.73577L8.73146 4.97666C8.77102 4.93684 8.79298 4.88282 8.79241 4.82669C8.79184 4.77056 8.76879 4.717 8.72842 4.678C6.94026 3.01465 4.17106 3.01465 2.3829 4.678C2.34251 4.717 2.31947 4.77059 2.31894 4.82674C2.31841 4.88288 2.34044 4.9369 2.38008 4.97666L3.13117 5.73577C3.20859 5.81328 3.3337 5.81492 3.41313 5.73945C3.99994 5.20808 4.76325 4.91365 5.5549 4.91332ZM7.05993 6.57516C7.06108 6.63145 7.03896 6.68572 6.99878 6.72515L5.69918 8.03668C5.66108 8.07523 5.60914 8.09692 5.55495 8.09692C5.50075 8.09692 5.44881 8.07523 5.41071 8.03668L4.1109 6.72515C4.07075 6.68569 4.04866 6.63141 4.04985 6.57512C4.05104 6.51883 4.0754 6.46553 4.11719 6.4278C4.94716 5.7258 6.16273 5.7258 6.9927 6.4278C7.03446 6.46556 7.05878 6.51888 7.05993 6.57516Z" fill="#111827"/>
</svg>
