<svg width="11" height="7" viewBox="0 0 11 7" fill="none" xmlns="http://www.w3.org/2000/svg">
<path fill-rule="evenodd" clip-rule="evenodd" d="M10.0121 0.381348H9.40793C9.07423 0.381348 8.80372 0.651863 8.80372 0.985561V6.22208C8.80372 6.55578 9.07423 6.82629 9.40793 6.82629H10.0121C10.3458 6.82629 10.6164 6.55578 10.6164 6.22208V0.985561C10.6164 0.651863 10.3458 0.381348 10.0121 0.381348ZM6.58807 1.79128H7.19229C7.52598 1.79128 7.7965 2.06179 7.7965 2.39549V6.22218C7.7965 6.55588 7.52598 6.82639 7.19229 6.82639H6.58807C6.25437 6.82639 5.98386 6.55588 5.98386 6.22218V2.39549C5.98386 2.06179 6.25437 1.79128 6.58807 1.79128ZM4.37301 3.20091H3.7688C3.4351 3.20091 3.16459 3.47143 3.16459 3.80513V6.22198C3.16459 6.55568 3.4351 6.8262 3.7688 6.8262H4.37301C4.70671 6.8262 4.97723 6.55568 4.97723 6.22198V3.80513C4.97723 3.47143 4.70671 3.20091 4.37301 3.20091ZM1.55315 4.40934H0.94894C0.615242 4.40934 0.344727 4.67986 0.344727 5.01355V6.22198C0.344727 6.55568 0.615242 6.8262 0.94894 6.8262H1.55315C1.88685 6.8262 2.15737 6.55568 2.15737 6.22198V5.01355C2.15737 4.67986 1.88685 4.40934 1.55315 4.40934Z" fill="white"/>
</svg>
