<svg width="11" height="7" viewBox="0 0 11 7" fill="none" xmlns="http://www.w3.org/2000/svg">
<path fill-rule="evenodd" clip-rule="evenodd" d="M10.0126 0.381836H9.40842C9.07472 0.381836 8.80421 0.652352 8.80421 0.98605V6.22257C8.80421 6.55627 9.07472 6.82678 9.40842 6.82678H10.0126C10.3463 6.82678 10.6168 6.55627 10.6168 6.22257V0.98605C10.6168 0.652352 10.3463 0.381836 10.0126 0.381836ZM6.58886 1.79177H7.19307C7.52677 1.79177 7.79728 2.06228 7.79728 2.39598V6.22267C7.79728 6.55637 7.52677 6.82688 7.19307 6.82688H6.58886C6.25516 6.82688 5.98464 6.55637 5.98464 6.22267V2.39598C5.98464 2.06228 6.25516 1.79177 6.58886 1.79177ZM4.37321 3.2014H3.76899C3.4353 3.2014 3.16478 3.47192 3.16478 3.80562V6.22247C3.16478 6.55617 3.4353 6.82668 3.76899 6.82668H4.37321C4.70691 6.82668 4.97742 6.55617 4.97742 6.22247V3.80562C4.97742 3.47192 4.70691 3.2014 4.37321 3.2014ZM1.55364 4.40983H0.949429C0.615731 4.40983 0.345215 4.68035 0.345215 5.01404V6.22247C0.345215 6.55617 0.615731 6.82668 0.949429 6.82668H1.55364C1.88734 6.82668 2.15786 6.55617 2.15786 6.22247V5.01404C2.15786 4.68035 1.88734 4.40983 1.55364 4.40983Z" fill="white"/>
</svg>
