<svg width="17" height="17" viewBox="0 0 17 17" fill="none" xmlns="http://www.w3.org/2000/svg">
<path d="M14.3572 5.75329L10.0954 2.3438C9.2625 1.68012 7.96117 1.67361 7.13482 2.33729L2.87295 5.75329C2.26133 6.24129 1.89045 7.21729 2.02058 7.98508L2.84042 12.8911C3.02911 13.9907 4.05066 14.8561 5.1633 14.8561H12.0604C13.16 14.8561 14.2011 13.9712 14.3898 12.8846L15.2096 7.97857C15.3267 7.21729 14.9558 6.24129 14.3572 5.75329ZM9.09983 12.2535C9.09983 12.5202 8.87861 12.7415 8.61183 12.7415C8.34506 12.7415 8.12383 12.5202 8.12383 12.2535V10.3015C8.12383 10.0347 8.34506 9.81345 8.61183 9.81345C8.87861 9.81345 9.09983 10.0347 9.09983 10.3015V12.2535Z" fill="#2711B2"/>
</svg>
