<svg width="773" height="6" viewBox="0 0 773 6" fill="none" xmlns="http://www.w3.org/2000/svg">
<path d="M770 0.333333C768.527 0.333333 767.333 1.52724 767.333 3C767.333 4.47276 768.527 5.66667 770 5.66667C771.473 5.66667 772.667 4.47276 772.667 3C772.667 1.52724 771.473 0.333333 770 0.333333ZM3 0.333333C1.52722 0.333333 0.333313 1.52724 0.333313 3C0.333313 4.47276 1.52722 5.66667 3 5.66667C4.47278 5.66667 5.66669 4.47276 5.66669 3C5.66669 1.52724 4.47278 0.333333 3 0.333333ZM770 2.5L3 2.5V3.5L770 3.5V2.5Z" fill="white"/>
</svg>
