<svg width="11" height="9" viewBox="0 0 11 9" fill="none" xmlns="http://www.w3.org/2000/svg">
<path fill-rule="evenodd" clip-rule="evenodd" d="M5.55482 2.4437C6.99663 2.44376 8.38331 2.99776 9.42824 3.9912C9.50693 4.06789 9.6327 4.06693 9.7102 3.98903L10.4624 3.22992C10.5016 3.19041 10.5235 3.13689 10.5232 3.0812C10.5228 3.02552 10.5003 2.97226 10.4606 2.93321C7.71801 0.304814 3.3912 0.304814 0.648579 2.93321C0.60885 2.97223 0.586308 3.02548 0.585942 3.08116C0.585576 3.13684 0.607415 3.19038 0.646627 3.22992L1.39901 3.98903C1.47646 4.06704 1.60233 4.06801 1.68097 3.9912C2.72604 2.9977 4.11287 2.44369 5.55482 2.4437ZM5.55459 4.91332C6.34677 4.91328 7.11068 5.20772 7.69788 5.73945C7.7773 5.81492 7.90242 5.81328 7.97984 5.73577L8.73114 4.97666C8.77071 4.93684 8.79266 4.88282 8.79209 4.82669C8.79152 4.77056 8.76847 4.717 8.7281 4.678C6.93994 3.01465 4.17075 3.01465 2.38259 4.678C2.34219 4.717 2.31915 4.77059 2.31862 4.82674C2.31809 4.88288 2.34012 4.9369 2.37977 4.97666L3.13085 5.73577C3.20827 5.81328 3.33339 5.81492 3.41281 5.73945C3.99963 5.20808 4.76293 4.91365 5.55459 4.91332ZM7.05962 6.57516C7.06077 6.63145 7.03864 6.68572 6.99846 6.72515L5.69886 8.03668C5.66076 8.07523 5.60882 8.09692 5.55463 8.09692C5.50043 8.09692 5.44849 8.07523 5.4104 8.03668L4.11058 6.72515C4.07043 6.68569 4.04834 6.63141 4.04953 6.57512C4.05072 6.51883 4.07508 6.46553 4.11687 6.4278C4.94684 5.7258 6.16241 5.7258 6.99238 6.4278C7.03414 6.46556 7.05847 6.51888 7.05962 6.57516Z" fill="#111827"/>
</svg>
