<svg width="6" height="334" viewBox="0 0 6 334" fill="none" xmlns="http://www.w3.org/2000/svg">
<path d="M0.333333 3C0.333333 4.47276 1.52724 5.66667 3 5.66667C4.47276 5.66667 5.66667 4.47276 5.66667 3C5.66667 1.52724 4.47276 0.333333 3 0.333333C1.52724 0.333333 0.333333 1.52724 0.333333 3ZM0.333319 331C0.333319 332.473 1.52723 333.667 2.99999 333.667C4.47274 333.667 5.66665 332.473 5.66665 331C5.66665 329.527 4.47275 328.333 2.99999 328.333C1.52723 328.333 0.333319 329.527 0.333319 331ZM2.5 3L2.49999 331L3.49999 331L3.5 3L2.5 3Z" fill="white"/>
</svg>
