<svg width="82" height="76" viewBox="0 0 82 76" fill="none" xmlns="http://www.w3.org/2000/svg">
<g opacity="0.5">
<path d="M41.0002 23.8333C33.1802 23.8333 26.8335 30.18 26.8335 38C26.8335 45.82 33.1802 52.1667 41.0002 52.1667C48.8202 52.1667 55.1668 45.82 55.1668 38C55.1668 30.18 48.8202 23.8333 41.0002 23.8333ZM47.5735 33.4667C47.361 35.705 46.4402 41.145 45.9727 43.6525C45.7743 44.715 45.3777 45.0692 45.0093 45.1117C44.1877 45.1825 43.5643 44.5733 42.771 44.0492C41.5243 43.2275 40.816 42.7175 39.6118 41.9242C38.2093 41.0033 39.116 40.4933 39.9235 39.6717C40.136 39.4592 43.7627 36.1583 43.8335 35.8608C43.8433 35.8158 43.842 35.769 43.8297 35.7246C43.8173 35.6801 43.7943 35.6394 43.7627 35.6058C43.6777 35.535 43.5643 35.5633 43.4652 35.5775C43.3377 35.6058 41.3543 36.9233 37.4868 39.53C36.9202 39.9125 36.4102 40.1108 35.9568 40.0967C35.4468 40.0825 34.4835 39.8133 33.761 39.5725C32.8685 39.2892 32.1743 39.1333 32.231 38.6375C32.2593 38.3825 32.6135 38.1275 33.2793 37.8583C37.416 36.0592 40.1643 34.8692 41.5385 34.3025C45.4768 32.6592 46.2843 32.3758 46.8227 32.3758C46.936 32.3758 47.2052 32.4042 47.3752 32.5458C47.5168 32.6592 47.5593 32.815 47.5735 32.9283C47.5593 33.0133 47.5877 33.2683 47.5735 33.4667Z" fill="white"/>
</g>
<rect x="1" y="1" width="80" height="74" stroke="white" stroke-opacity="0.26" stroke-width="2"/>
</svg>
