<svg width="163" height="6" viewBox="0 0 163 6" fill="none" xmlns="http://www.w3.org/2000/svg">
<path d="M160 0.333333C158.527 0.333333 157.333 1.52724 157.333 3C157.333 4.47276 158.527 5.66667 160 5.66667C161.473 5.66667 162.667 4.47276 162.667 3C162.667 1.52724 161.473 0.333333 160 0.333333ZM3 0.333333C1.52724 0.333333 0.333328 1.52724 0.333328 3C0.333328 4.47276 1.52724 5.66667 3 5.66667C4.47276 5.66667 5.66667 4.47276 5.66667 3C5.66667 1.52724 4.47276 0.333333 3 0.333333ZM160 2.5L3 2.5V3.5L160 3.5V2.5Z" fill="white"/>
</svg>
