<svg width="1021" height="6" viewBox="0 0 1021 6" fill="none" xmlns="http://www.w3.org/2000/svg">
<path d="M1018 0.333333C1016.53 0.333333 1015.33 1.52724 1015.33 3C1015.33 4.47276 1016.53 5.66667 1018 5.66667C1019.47 5.66667 1020.67 4.47276 1020.67 3C1020.67 1.52724 1019.47 0.333333 1018 0.333333ZM3 0.333333C1.52722 0.333333 0.333313 1.52724 0.333313 3C0.333313 4.47276 1.52722 5.66667 3 5.66667C4.47278 5.66667 5.66669 4.47276 5.66669 3C5.66669 1.52724 4.47278 0.333333 3 0.333333ZM1018 2.5L3 2.5V3.5L1018 3.5V2.5Z" fill="white"/>
</svg>
