<svg width="200" height="6" viewBox="0 0 649 6" fill="none" xmlns="http://www.w3.org/2000/svg">
<path opacity="0.5" d="M646 0.333333C644.527 0.333333 643.333 1.52724 643.333 3C643.333 4.47276 644.527 5.66667 646 5.66667C647.473 5.66667 648.667 4.47276 648.667 3C648.667 1.52724 647.473 0.333333 646 0.333333ZM3 0.333333C1.52722 0.333333 0.333313 1.52724 0.333313 3C0.333313 4.47276 1.52722 5.66667 3 5.66667C4.47278 5.66667 5.66669 4.47276 5.66669 3C5.66669 1.52724 4.47278 0.333333 3 0.333333ZM646 2.5L3 2.5V3.5L646 3.5V2.5Z" fill="white"/>
</svg>
