<svg width="82" height="76" viewBox="0 0 82 76" fill="none" xmlns="http://www.w3.org/2000/svg">
<g opacity="0.5">
<path d="M41.0002 23.8333C33.1802 23.8333 26.8335 30.1799 26.8335 37.9999C26.8335 45.8199 33.1802 52.1666 41.0002 52.1666C48.8202 52.1666 55.1668 45.8199 55.1668 37.9999C55.1668 30.1799 48.8202 23.8333 41.0002 23.8333ZM47.5735 33.4666C47.361 35.7049 46.4402 41.1449 45.9727 43.6524C45.7743 44.7149 45.3777 45.0691 45.0093 45.1116C44.1877 45.1824 43.5643 44.5733 42.771 44.0491C41.5243 43.2274 40.816 42.7174 39.6118 41.9241C38.2093 41.0033 39.116 40.4933 39.9235 39.6716C40.136 39.4591 43.7627 36.1583 43.8335 35.8608C43.8433 35.8157 43.842 35.7689 43.8297 35.7245C43.8173 35.68 43.7943 35.6393 43.7627 35.6058C43.6777 35.5349 43.5643 35.5633 43.4652 35.5774C43.3377 35.6058 41.3543 36.9233 37.4868 39.5299C36.9202 39.9124 36.4102 40.1108 35.9568 40.0966C35.4468 40.0824 34.4835 39.8133 33.761 39.5724C32.8685 39.2891 32.1743 39.1333 32.231 38.6374C32.2593 38.3824 32.6135 38.1274 33.2793 37.8583C37.416 36.0591 40.1643 34.8691 41.5385 34.3024C45.4768 32.6591 46.2843 32.3758 46.8227 32.3758C46.936 32.3758 47.2052 32.4041 47.3752 32.5458C47.5168 32.6591 47.5593 32.8149 47.5735 32.9283C47.5593 33.0133 47.5877 33.2683 47.5735 33.4666Z" fill="white"/>
</g>
<rect x="1" y="1" width="80" height="74" stroke="white" stroke-opacity="0.26" stroke-width="2"/>
</svg>
