<svg width="906" height="6" viewBox="0 0 906 6" fill="none" xmlns="http://www.w3.org/2000/svg">
<path opacity="0.5" d="M903 0.333333C901.527 0.333333 900.333 1.52724 900.333 3C900.333 4.47276 901.527 5.66667 903 5.66667C904.473 5.66667 905.667 4.47276 905.667 3C905.667 1.52724 904.473 0.333333 903 0.333333ZM3 0.333333C1.52722 0.333333 0.333313 1.52724 0.333313 3C0.333313 4.47276 1.52722 5.66667 3 5.66667C4.47278 5.66667 5.66669 4.47276 5.66669 3C5.66669 1.52724 4.47278 0.333333 3 0.333333ZM903 2.5L3 2.5V3.5L903 3.5V2.5Z" fill="white"/>
</svg>
