<svg width="12" height="8" viewBox="0 0 12 8" fill="none" xmlns="http://www.w3.org/2000/svg">
<path fill-rule="evenodd" clip-rule="evenodd" d="M10.6646 0.180664H10.0139C9.65455 0.180664 9.36324 0.471977 9.36324 0.831331V6.47044C9.36324 6.8298 9.65455 7.12111 10.0139 7.12111H10.6646C11.0239 7.12111 11.3152 6.8298 11.3152 6.47044V0.831331C11.3152 0.471977 11.0239 0.180664 10.6646 0.180664ZM6.97757 1.69899H7.62824C7.98759 1.69899 8.2789 1.99031 8.2789 2.34966V6.47055C8.2789 6.8299 7.98759 7.12121 7.62824 7.12121H6.97757C6.61822 7.12121 6.3269 6.8299 6.3269 6.47055V2.34966C6.3269 1.99031 6.61822 1.69899 6.97757 1.69899ZM4.59158 3.217H3.94091C3.58156 3.217 3.29025 3.50832 3.29025 3.86767V6.47034C3.29025 6.82969 3.58156 7.121 3.94091 7.121H4.59158C4.95093 7.121 5.24225 6.82969 5.24225 6.47034V3.86767C5.24225 3.50832 4.95093 3.217 4.59158 3.217ZM1.55524 4.51834H0.904573C0.54522 4.51834 0.253906 4.80965 0.253906 5.169V6.47034C0.253906 6.82969 0.54522 7.121 0.904573 7.121H1.55524C1.91459 7.121 2.20591 6.82969 2.20591 6.47034V5.169C2.20591 4.80965 1.91459 4.51834 1.55524 4.51834Z" fill="#111827"/>
</svg>
