<svg width="16" height="17" viewBox="0 0 16 17" fill="none" xmlns="http://www.w3.org/2000/svg">
<path d="M8.22677 13.132C7.96 13.132 7.73877 12.9107 7.73877 12.644V11.2776C7.73877 11.0108 7.96 10.7896 8.22677 10.7896C8.49354 10.7896 8.71477 11.0108 8.71477 11.2776V12.644C8.71477 12.9107 8.49354 13.132 8.22677 13.132Z" fill="#9CA3AF"/>
<path d="M11.968 15.3445H4.48535V14.2058C4.48535 13.2168 5.28567 12.4165 6.27468 12.4165H10.1787C11.1677 12.4165 11.968 13.2168 11.968 14.2058V15.3445ZM5.46135 14.3685H10.992V14.2058C10.992 13.7569 10.6276 13.3925 10.1787 13.3925H6.27468C5.82572 13.3925 5.46135 13.7569 5.46135 14.2058V14.3685Z" fill="#9CA3AF"/>
<path d="M12.131 15.3442H4.32296C4.05619 15.3442 3.83496 15.1229 3.83496 14.8562C3.83496 14.5894 4.05619 14.3682 4.32296 14.3682H12.131C12.3977 14.3682 12.619 14.5894 12.619 14.8562C12.619 15.1229 12.3977 15.3442 12.131 15.3442Z" fill="#9CA3AF"/>
<path d="M12.3135 8.63583C12.1768 8.63583 12.0402 8.57727 11.9426 8.46666C11.819 8.32351 11.7864 8.1218 11.8645 7.95263C12.0857 7.44511 12.1963 6.90506 12.1963 6.33898V4.38698C12.1963 4.15924 12.1573 3.93802 12.0792 3.70378C12.0727 3.68426 12.0662 3.65823 12.0597 3.6322C12.0402 3.5346 12.0337 3.437 12.0337 3.34591C12.0337 3.07914 12.2549 2.85791 12.5217 2.85791H12.9121C14.0768 2.85791 15.0267 3.83391 15.0267 5.03764C15.0267 6.03316 14.6168 7.01567 13.9076 7.7249C13.8946 7.73791 13.8555 7.77044 13.849 7.77695C13.4651 8.09578 13.0292 8.45364 12.4436 8.61631C12.398 8.62932 12.359 8.63583 12.3135 8.63583ZM13.1268 3.85343C13.1593 4.02911 13.1723 4.2113 13.1723 4.38698V6.33898C13.1723 6.60575 13.1528 6.85951 13.1138 7.11978C13.1528 7.08724 13.1854 7.06122 13.2244 7.02868C13.7449 6.50815 14.0507 5.7794 14.0507 5.03764C14.0507 4.45204 13.6538 3.95754 13.1268 3.85343Z" fill="#9CA3AF"/>
<path d="M3.95221 8.61014C3.90016 8.61014 3.85461 8.60364 3.80256 8.58412C3.26901 8.41494 2.768 8.10262 2.35157 7.6862C1.6033 6.85985 1.23242 5.95542 1.23242 4.99894C1.23242 3.81473 2.16288 2.88428 3.34709 2.88428H3.77002C3.93269 2.88428 4.08885 2.96886 4.17994 3.1055C4.27104 3.24214 4.28405 3.41782 4.21898 3.56748C4.11488 3.80172 4.06282 4.06849 4.06282 4.34828V6.30028C4.06282 6.85985 4.17344 7.40641 4.40117 7.92694C4.47925 8.10262 4.44021 8.30433 4.31658 8.44748C4.21898 8.55158 4.08885 8.61014 3.95221 8.61014ZM3.11936 3.8798C2.59232 3.9839 2.20842 4.43937 2.20842 4.99894C2.20842 5.70817 2.49472 6.39137 3.0608 7.01601C3.08682 7.04854 3.11936 7.07457 3.15189 7.1006C3.10634 6.83382 3.08682 6.56705 3.08682 6.30028V4.34828C3.08682 4.19212 3.09984 4.03596 3.11936 3.8798Z" fill="#9CA3AF"/>
<path d="M8.12958 11.4403C5.35123 11.4403 3.08691 9.17599 3.08691 6.39765V4.44565C3.08691 2.7409 4.47283 1.35498 6.17758 1.35498H10.0816C11.7863 1.35498 13.1722 2.7409 13.1722 4.44565V6.39765C13.1722 9.17599 10.9079 11.4403 8.12958 11.4403ZM6.17758 2.33098C5.01289 2.33098 4.06291 3.28095 4.06291 4.44565V6.39765C4.06291 8.64245 5.88478 10.4643 8.12958 10.4643C10.3744 10.4643 12.1962 8.64245 12.1962 6.39765V4.44565C12.1962 3.28095 11.2463 2.33098 10.0816 2.33098H6.17758Z" fill="#9CA3AF"/>
</svg>
