<svg width="79" height="77" viewBox="0 0 79 77" fill="none" xmlns="http://www.w3.org/2000/svg">
<path opacity="0.5" d="M50.8367 26.6795C49.3624 25.1903 47.6064 24.0096 45.6711 23.2062C43.7357 22.4028 41.6598 21.9928 39.5643 22.0001C30.7844 22.0001 23.6286 29.1559 23.6286 37.9358C23.6286 40.7498 24.3683 43.4835 25.7513 45.8956L23.5 54.1609L31.9422 51.9418C34.2739 53.2122 36.895 53.8875 39.5643 53.8875C48.3442 53.8875 55.5 46.7318 55.5 37.9519C55.5 33.6905 53.8437 29.6865 50.8367 26.6795ZM39.5643 51.186C37.1844 51.186 34.8528 50.5428 32.8106 49.3368L32.3281 49.0473L27.3111 50.3659L28.6457 45.4775L28.3241 44.979C27.0019 42.8676 26.2998 40.427 26.298 37.9358C26.298 30.6353 32.2477 24.6855 39.5482 24.6855C43.0859 24.6855 46.4146 26.0684 48.907 28.577C50.1412 29.8055 51.1192 31.2667 51.7845 32.876C52.4497 34.4852 52.7889 36.2105 52.7824 37.9519C52.8146 45.2524 46.8648 51.186 39.5643 51.186ZM46.8327 41.2805C46.4307 41.0875 44.4688 40.1227 44.1151 39.978C43.7452 39.8493 43.4879 39.785 43.2146 40.1709C42.9412 40.573 42.1854 41.4735 41.9603 41.7307C41.7352 42.0041 41.494 42.0363 41.092 41.8272C40.6899 41.6343 39.4035 41.2001 37.892 39.8493C36.702 38.788 35.9141 37.4855 35.6729 37.0835C35.4477 36.6815 35.6407 36.4725 35.8497 36.2634C36.0266 36.0865 36.2518 35.7971 36.4447 35.572C36.6377 35.3468 36.7181 35.1699 36.8467 34.9127C36.9754 34.6393 36.9111 34.4142 36.8146 34.2212C36.7181 34.0282 35.9141 32.0664 35.5925 31.2624C35.2709 30.4905 34.9332 30.587 34.692 30.5709H33.9201C33.6467 30.5709 33.2286 30.6674 32.8588 31.0694C32.505 31.4715 31.4759 32.4363 31.4759 34.3981C31.4759 36.3599 32.907 38.2574 33.1 38.5147C33.293 38.788 35.9141 42.8081 39.902 44.5287C40.8508 44.9468 41.5905 45.188 42.1693 45.3649C43.1181 45.6704 43.9864 45.6222 44.6779 45.5257C45.4497 45.4132 47.0417 44.5609 47.3633 43.6282C47.701 42.6956 47.701 41.9076 47.5884 41.7307C47.4759 41.5539 47.2347 41.4735 46.8327 41.2805Z" fill="white"/>
<rect x="1" y="1" width="77" height="74.1609" stroke="white" stroke-opacity="0.26" stroke-width="2"/>
</svg>
