<svg width="1403" height="3" viewBox="0 0 1403 3" fill="none" xmlns="http://www.w3.org/2000/svg">
<path opacity="0.5" d="M1403 -2.66667C1401.53 -2.66667 1400.33 -1.47276 1400.33 0C1400.33 1.47276 1401.53 2.66667 1403 2.66667C1404.47 2.66667 1405.67 1.47276 1405.67 0C1405.67 -1.47276 1404.47 -2.66667 1403 -2.66667ZM0 -2.66667C-1.47278 -2.66667 -2.66663 -1.47276 -2.66663 0C-2.66663 1.47276 -1.47278 2.66667 0 2.66667C1.47278 2.66667 2.66663 1.47276 2.66663 0C2.66663 -1.47276 1.47278 -2.66667 0 -2.66667ZM1403 -0.5L0 -0.5V0.5L1403 0.5V-0.5Z" fill="white"/>
</svg>
