<svg width="16" height="17" viewBox="0 0 16 17" fill="none" xmlns="http://www.w3.org/2000/svg">
<path d="M8.52139 6.88567H4.61739C4.35062 6.88567 4.12939 6.66444 4.12939 6.39767C4.12939 6.13089 4.35062 5.90967 4.61739 5.90967H8.52139C8.78817 5.90967 9.00939 6.13089 9.00939 6.39767C9.00939 6.66444 8.78817 6.88567 8.52139 6.88567Z" fill="#9CA3AF"/>
<path d="M12.4515 10.1711C11.469 10.1711 10.6362 9.44232 10.5581 8.50536C10.506 7.9653 10.7012 7.43828 11.0916 7.05438C11.417 6.71604 11.8789 6.52734 12.3669 6.52734H13.7268C14.371 6.54686 14.8655 7.05436 14.8655 7.679V9.01941C14.8655 9.64405 14.371 10.1515 13.7464 10.1711H12.4515ZM13.7073 7.50334H12.3734C12.1457 7.50334 11.9375 7.58793 11.7879 7.74409C11.5992 7.92627 11.5081 8.17351 11.5341 8.42077C11.5666 8.85021 11.983 9.19506 12.4515 9.19506H13.7268C13.8114 9.19506 13.8895 9.11701 13.8895 9.01941V7.679C13.8895 7.5814 13.8114 7.50985 13.7073 7.50334Z" fill="#9CA3AF"/>
<path d="M10.4733 14.3684H4.61731C2.37902 14.3684 0.875977 12.8653 0.875977 10.6271V6.07239C0.875977 4.06833 2.11223 2.61735 4.03169 2.37661C4.20737 2.35058 4.4091 2.33105 4.61731 2.33105H10.4733C10.6295 2.33105 10.8312 2.33756 11.0394 2.37009C12.9589 2.59132 14.2146 4.04881 14.2146 6.07239V7.01586C14.2146 7.28264 13.9934 7.50386 13.7266 7.50386H12.3732C12.1455 7.50386 11.9373 7.58845 11.7877 7.74461L11.7812 7.75112C11.599 7.9268 11.5144 8.16752 11.5339 8.41477C11.5664 8.84421 11.9828 9.18907 12.4513 9.18907H13.7266C13.9934 9.18907 14.2146 9.41029 14.2146 9.67707V10.6205C14.2146 12.8653 12.7116 14.3684 10.4733 14.3684ZM4.61731 3.30705C4.46115 3.30705 4.31149 3.32006 4.16184 3.33958C2.73037 3.52177 1.85198 4.56284 1.85198 6.07239V10.6271C1.85198 12.3058 2.93859 13.3924 4.61731 13.3924H10.4733C12.152 13.3924 13.2386 12.3058 13.2386 10.6271V10.1716H12.4513C11.4688 10.1716 10.636 9.44284 10.5579 8.50588C10.5058 7.97233 10.7011 7.4388 11.0915 7.06141C11.4298 6.71656 11.8852 6.52786 12.3732 6.52786H13.2386V6.07239C13.2386 4.54983 12.3472 3.50224 10.9027 3.33307C10.7466 3.30704 10.61 3.30705 10.4733 3.30705H4.61731Z" fill="#9CA3AF"/>
</svg>
