<svg width="10" height="7" viewBox="0 0 10 7" fill="none" xmlns="http://www.w3.org/2000/svg">
<path fill-rule="evenodd" clip-rule="evenodd" d="M5.26844 1.5547C6.60731 1.55476 7.89499 2.06921 8.86532 2.99173C8.93839 3.06295 9.05519 3.06205 9.12715 2.98971L9.82562 2.2848C9.86206 2.24811 9.88238 2.19841 9.88207 2.1467C9.88177 2.09499 9.86088 2.04553 9.82401 2.00927C7.27719 -0.431477 3.25929 -0.431477 0.712466 2.00927C0.675574 2.04551 0.654641 2.09495 0.654301 2.14666C0.653961 2.19837 0.674241 2.24808 0.710653 2.2848L1.40933 2.98971C1.48124 3.06216 1.59813 3.06306 1.67115 2.99173C2.64161 2.06915 3.92944 1.5547 5.26844 1.5547ZM5.26848 3.84803C6.0041 3.84798 6.71347 4.12141 7.25876 4.61518C7.33251 4.68526 7.44869 4.68374 7.52058 4.61176L8.21825 3.90684C8.25499 3.86987 8.27538 3.81971 8.27485 3.76758C8.27432 3.71546 8.25291 3.66573 8.21543 3.62951C6.55493 2.0849 3.98344 2.0849 2.32294 3.62951C2.28543 3.66573 2.26403 3.71549 2.26354 3.76762C2.26304 3.81976 2.2835 3.86992 2.32032 3.90684L3.01778 4.61176C3.08968 4.68374 3.20586 4.68526 3.27961 4.61518C3.82453 4.12174 4.53334 3.84833 5.26848 3.84803ZM6.66606 5.39123C6.66713 5.4435 6.64658 5.49389 6.60927 5.53051L5.40245 6.7484C5.36707 6.78419 5.31884 6.80434 5.26852 6.80434C5.21819 6.80434 5.16996 6.78419 5.13458 6.7484L3.92757 5.53051C3.89028 5.49386 3.86977 5.44345 3.87087 5.39118C3.87198 5.33891 3.8946 5.28942 3.93341 5.25438C4.70412 4.60251 5.83291 4.60251 6.60363 5.25438C6.6424 5.28945 6.66499 5.33896 6.66606 5.39123Z" fill="white"/>
</svg>
